HIERARCHY
ROOT hip
{
  OFFSET 0 0 0
  CHANNELS 6 Xposition Yposition Zposition Zrotation Yrotation Xrotation
  JOINT abdomen
  {
    OFFSET 0 20.6881 -0.73152
    CHANNELS 3 Zrotation Xrotation Yrotation
    JOINT chest
    {
      OFFSET 0 11.7043 -0.48768
      CHANNELS 3 Zrotation Xrotation Yrotation
      JOINT neck
      {
        OFFSET 0 22.1894 -2.19456
        CHANNELS 3 Zrotation Xrotation Yrotation
        JOINT head
        {
          OFFSET -0.24384 7.07133 1.2192
          CHANNELS 3 Zrotation Xrotation Yrotation
          JOINT leftEye
          {
            OFFSET 4.14528 8.04674 8.04672
            CHANNELS 3 Zrotation Xrotation Yrotation
            End Site
            {
              OFFSET 1 0 0
            }
          }
          JOINT rightEye
          {
            OFFSET -3.6576 8.04674 8.04672
            CHANNELS 3 Zrotation Xrotation Yrotation
            End Site
            {
              OFFSET 1 0 0
            }
          }
        }
      }
      JOINT rCollar
      {
        OFFSET -2.68224 19.2634 -4.8768
        CHANNELS 3 Zrotation Xrotation Yrotation
        JOINT rShldr
        {
          OFFSET -8.77824 -1.95073 1.46304
          CHANNELS 3 Zrotation Xrotation Yrotation
          JOINT rForeArm
          {
            OFFSET -28.1742 -1.7115 0.48768
            CHANNELS 3 Zrotation Xrotation Yrotation
            JOINT rHand
            {
              OFFSET -22.5879 0.773209 7.07136
              CHANNELS 3 Zrotation Xrotation Yrotation
              JOINT rThumb1
              {
                OFFSET -1.2192 -0.487915 3.41376
                CHANNELS 3 Zrotation Xrotation Yrotation
                JOINT rThumb2
                {
                  OFFSET -3.37035 -0.52449 3.41376
                  CHANNELS 3 Zrotation Xrotation Yrotation
                  End Site
                  {
                    OFFSET -1.78271 -1.18214 1.43049
                  }
                }
              }
              JOINT rIndex1
              {
                OFFSET -7.75947 0.938293 5.60832
                CHANNELS 3 Zrotation Xrotation Yrotation
                JOINT rIndex2
                {
                  OFFSET -2.54057 -0.884171 1.56538
                  CHANNELS 3 Zrotation Xrotation Yrotation
                  End Site
                  {
                    OFFSET -1.62519 -0.234802 1.16502
                  }
                }
              }
              JOINT rMid1
              {
                OFFSET -8.24714 1.18213 3.41376
                CHANNELS 3 Zrotation Xrotation Yrotation
                JOINT rMid2
                {
                  OFFSET -3.10165 -0.590103 1.0647
                  CHANNELS 3 Zrotation Xrotation Yrotation
                  End Site
                  {
                    OFFSET -2.48547 -0.328903 0.83742
                  }
                }
              }
              JOINT rRing1
              {
                OFFSET -8.82822 0.546677 1.51678
                CHANNELS 3 Zrotation Xrotation Yrotation
                JOINT rRing2
                {
                  OFFSET -2.60934 -0.819778 -0.0198488
                  CHANNELS 3 Zrotation Xrotation Yrotation
                  End Site
                  {
                    OFFSET -2.33842 -0.294052 0.168128
                  }
                }
              }
              JOINT rPinky1
              {
                OFFSET -8.27202 -0.0477905 -0.4584
                CHANNELS 3 Zrotation Xrotation Yrotation
                JOINT rPinky2
                {
                  OFFSET -1.82734 -0.647385 -0.700984
                  CHANNELS 3 Zrotation Xrotation Yrotation
                  End Site
                  {
                    OFFSET -1.69225 -0.51767 -0.607171
                  }
                }
              }
            }
          }
        }
      }
      JOINT lCollar
      {
        OFFSET 2.68224 19.2634 -4.8768
        CHANNELS 3 Zrotation Xrotation Yrotation
        JOINT lShldr
        {
          OFFSET 8.77824 -1.95073 1.46304
          CHANNELS 3 Zrotation Xrotation Yrotation
          JOINT lForeArm
          {
            OFFSET 28.1742 -1.7115 0.48768
            CHANNELS 3 Zrotation Xrotation Yrotation
            JOINT lHand
            {
              OFFSET 22.5879 0.773209 7.07136
              CHANNELS 3 Zrotation Xrotation Yrotation
              JOINT lThumb1
              {
                OFFSET 1.2192 -0.487915 3.41376
                CHANNELS 3 Zrotation Xrotation Yrotation
                JOINT lThumb2
                {
                  OFFSET 3.37035 -0.52449 3.41376
                  CHANNELS 3 Zrotation Xrotation Yrotation
                  End Site
                  {
                    OFFSET 1.78271 -1.18214 1.43049
                  }
                }
              }
              JOINT lIndex1
              {
                OFFSET 7.75947 0.938293 5.60832
                CHANNELS 3 Zrotation Xrotation Yrotation
                JOINT lIndex2
                {
                  OFFSET 2.54057 -0.884171 1.56538
                  CHANNELS 3 Zrotation Xrotation Yrotation
                  End Site
                  {
                    OFFSET 1.62519 -0.234802 1.16502
                  }
                }
              }
              JOINT lMid1
              {
                OFFSET 8.24714 1.18213 3.41376
                CHANNELS 3 Zrotation Xrotation Yrotation
                JOINT lMid2
                {
                  OFFSET 3.10165 -0.590103 1.0647
                  CHANNELS 3 Zrotation Xrotation Yrotation
                  End Site
                  {
                    OFFSET 2.48547 -0.328903 0.83742
                  }
                }
              }
              JOINT lRing1
              {
                OFFSET 8.82822 0.546677 1.51678
                CHANNELS 3 Zrotation Xrotation Yrotation
                JOINT lRing2
                {
                  OFFSET 2.60934 -0.819778 -0.0198488
                  CHANNELS 3 Zrotation Xrotation Yrotation
                  End Site
                  {
                    OFFSET 2.33842 -0.294052 0.168128
                  }
                }
              }
              JOINT lPinky1
              {
                OFFSET 8.27202 -0.0477905 -0.4584
                CHANNELS 3 Zrotation Xrotation Yrotation
                JOINT lPinky2
                {
                  OFFSET 1.82734 -0.647385 -0.700984
                  CHANNELS 3 Zrotation Xrotation Yrotation
                  End Site
                  {
                    OFFSET 1.69225 -0.51767 -0.607171
                  }
                }
              }
            }
          }
        }
      }
    }
  }
  JOINT rButtock
  {
    OFFSET -8.77824 4.35084 1.2192
    CHANNELS 3 Zrotation Xrotation Yrotation
    JOINT rThigh
    {
      OFFSET 0 -1.70687 -2.19456
      CHANNELS 3 Zrotation Xrotation Yrotation
      JOINT rShin
      {
        OFFSET 0 -36.8199 0.73152
        CHANNELS 3 Zrotation Xrotation Yrotation
        JOINT rFoot
        {
          OFFSET 0.73152 -45.1104 -5.12064
          CHANNELS 3 Zrotation Xrotation Yrotation
          End Site
          {
            OFFSET -1.1221 -3.69964 12.103
          }
        }
      }
    }
  }
  JOINT lButtock
  {
    OFFSET 8.77824 4.35084 1.2192
    CHANNELS 3 Zrotation Xrotation Yrotation
    JOINT lThigh
    {
      OFFSET 0 -1.70687 -2.19456
      CHANNELS 3 Zrotation Xrotation Yrotation
      JOINT lShin
      {
        OFFSET 0 -36.8199 0.73152
        CHANNELS 3 Zrotation Xrotation Yrotation
        JOINT lFoot
        {
          OFFSET -0.73152 -45.1104 -5.12064
          CHANNELS 3 Zrotation Xrotation Yrotation
          End Site
          {
            OFFSET 1.1221 -3.69964 12.103
          }
        }
      }
    }
  }
}
MOTION
Frames:	4
Frame Time:	0.03333
-0.04509177831735356 42.59941174012763 0.11516451328667257 9.917006492614746 -76.0978012084961 -2.4709882736206055 -11.97719955444336 6.88608980178833 10.961199760437012 0.7104989886283875 -9.127449989318848 2.817969799041748 -8.539998054504395 16.775400161743164 -11.092999458312988 12.191898345947266 -31.14649772644043 -18.88539695739746 -0.0 0.0 -0.0 -0.0 0.0 -0.0 -1.2722218027325094e-13 -2.5444436054650188e-14 1.2722218027325094e-14 17.095500946044922 8.262670516967773 52.15299606323242 -28.369796752929688 -37.58399963378906 79.65608978271484 -1.3163098096847534 -30.654499053955078 -4.781009197235107 -1.748872380247235e-09 -5.259491953069073e-09 -2.8631479409568783e-09 -2.9447608795862834e-09 -9.170022075011275e-09 -4.9920583222728965e-09 -1.748872380247235e-09 -5.259491953069073e-09 -2.863160597499359e-09 7.7309088706970215 5.474880218505859 0.41731396317481995 -1.748872380247235e-09 -5.2595177102432444e-09 -2.8631479409568783e-09 2.9055399894714355 0.9651829600334167 0.10290198773145676 -1.748872380247235e-09 -5.259491953069073e-09 -2.8631479409568783e-09 10.27859878540039 0.73180091381073 0.025912299752235413 -1.748872380247235e-09 -5.259491953069073e-09 -2.8631479409568783e-09 2.2216696739196777 -0.7334870100021362 -0.2089199721813202 -1.2722218027325094e-13 -2.5444436054650188e-14 1.2722218027325094e-14 -111.33099365234375 55.384395599365234 51.28399658203125 28.144996643066406 -39.56659698486328 -83.14849853515625 6.119019031524658 -55.21139907836914 11.671798706054688 -3.1286988555478956e-09 -1.2312562081007172e-10 -1.7852452849353995e-10 -5.372847056150931e-09 -2.47956016830031e-10 -4.5359160871782933e-10 -3.1286988555478956e-09 -1.2312562081007172e-10 -1.7851180256212018e-10 -7.7309088706970215 5.474880218505859 -0.41731396317481995 -3.1286988555478956e-09 -1.2312562081007172e-10 -1.7851180256212018e-10 -2.9055399894714355 0.9651829600334167 -0.10290198773145676 -3.128724168632857e-09 -1.2312562081007172e-10 -1.7851815858893616e-10 -10.27859878540039 0.73180091381073 -0.025912299752235413 -3.1286988555478956e-09 -1.2312562081007172e-10 -1.7852452849353995e-10 -2.2216696739196777 -0.7334870100021362 0.2089199721813202 -0.0 0.0 -0.0 -34.84839630126953 -38.20750427246094 -44.32749938964844 -3.433260202407837 76.8180923461914 4.255469799041748 -6.25085973739624 -5.706859588623047 -20.597801208496094 -0.0 0.0 -0.0 4.903299331665039 -15.597800254821777 15.183900833129883 0.3515768349170685 48.18589401245117 -1.5887798070907593 12.374399185180664 -14.948100090026855 32.08060073852539
-0.14598964726377606 42.55008069884721 0.19824339252409706 9.6430082321167 -77.01909637451172 -1.8309998512268066 -11.636499404907227 6.1524200439453125 11.055099487304688 0.8504979610443115 -8.888869285583496 2.8843297958374023 -8.440299034118652 16.517099380493164 -10.896899223327637 12.146097183227539 -31.123397827148438 -18.483699798583984 -0.0 0.0 -0.0 -0.0 0.0 -0.0 -7.633330816395056e-14 1.2722218027325094e-13 2.353610470580414e-13 18.59029769897461 6.538710117340088 52.03299331665039 -28.446300506591797 -35.307098388671875 75.77799224853516 -1.3648402690887451 -31.17169761657715 -4.879059791564941 -1.6440921957183718e-09 -2.1878907574546247e-09 -1.6301677785435231e-09 -2.7916109424097613e-09 -3.8625671550107654e-09 -2.8614113301017596e-09 -1.6440921957183718e-09 -2.1878907574546247e-09 -1.6301868743795467e-09 7.7309088706970215 5.474880218505859 0.41731396317481995 -1.6440921957183718e-09 -2.1878907574546247e-09 -1.6301804350860039e-09 2.9055399894714355 0.9651829600334167 0.10290198773145676 -1.644066771611108e-09 -2.1878907574546247e-09 -1.6301804350860039e-09 10.27859878540039 0.73180091381073 0.025912299752235413 -1.6440921957183718e-09 -2.1878907574546247e-09 -1.6301677785435231e-09 2.2216696739196777 -0.7334870100021362 -0.2089199721813202 -7.633330816395056e-14 1.2722218027325094e-13 2.353610470580414e-13 -111.77198791503906 55.64440155029297 51.44479751586914 28.156898498535156 -39.487300872802734 -83.00759887695312 6.180359363555908 -55.3765983581543 11.745899200439453 -3.0804305772846874e-09 -6.058320511925785e-11 -5.032018690620532e-10 -5.277455805696718e-09 -1.2404162419432652e-10 -1.0025617003250886e-09 -3.0804305772846874e-09 -6.058320511925785e-11 -5.031828287371809e-10 -7.7309088706970215 5.474880218505859 -0.41731396317481995 -3.0804305772846874e-09 -6.058320511925785e-11 -5.031891570084213e-10 -2.9055399894714355 0.9651829600334167 -0.10290198773145676 -3.0804305772846874e-09 -6.058320511925785e-11 -5.031891570084213e-10 -10.27859878540039 0.73180091381073 -0.025912299752235413 -3.0804305772846874e-09 -6.058320511925785e-11 -5.031891570084213e-10 -2.2216696739196777 -0.7334870100021362 0.2089199721813202 -0.0 0.0 -0.0 -33.131797790527344 -37.10519790649414 -43.832393646240234 -2.9787697792053223 75.40399169921875 3.858759641647339 -7.23586893081665 -7.562280178070068 -21.727497100830078 -0.0 0.0 -0.0 4.844568252563477 -15.758898735046387 15.375497817993164 0.36156195402145386 48.252899169921875 -1.5640299320220947 12.683600425720215 -14.783598899841309 32.829402923583984
-0.2884842553797555 42.53569973554975 0.2681442421810951 9.244998931884766 -77.90929412841797 -1.0309934616088867 -11.537097930908203 5.462049961090088 11.094499588012695 1.0175498723983765 -8.79146957397461 2.932269811630249 -8.413058280944824 16.248498916625977 -10.703499794006348 12.344400405883789 -30.953699111938477 -18.032800674438477 -0.0 0.0 -0.0 -0.0 0.0 -0.0 -7.633330816395056e-14 1.0177774421860075e-13 2.544443605465019e-13 19.550296783447266 5.445810317993164 51.973297119140625 -28.326995849609375 -33.30359649658203 72.59649658203125 -1.499980092048645 -32.54199981689453 -5.143650054931641 -1.251357351073068e-09 -4.3914552549928487e-10 -7.364701071210789e-10 -2.1364674474000367e-09 -8.224150804814201e-10 -1.3075323046507492e-09 -1.251357351073068e-09 -4.3914552549928487e-10 -7.36495586739494e-10 7.7309088706970215 5.474880218505859 0.41731396317481995 -1.251357351073068e-09 -4.3914552549928487e-10 -7.364764909034704e-10 2.9055399894714355 0.9651829600334167 0.10290198773145676 -1.251357351073068e-09 -4.3914552549928487e-10 -7.364764909034704e-10 10.27859878540039 0.73180091381073 0.025912299752235413 -1.251382775180332e-09 -4.3914552549928487e-10 -7.364701071210789e-10 2.2216696739196777 -0.7334870100021362 -0.2089199721813202 -7.633330816395056e-14 1.0177774421860075e-13 2.544443605465019e-13 -112.12298583984375 55.79779815673828 51.594390869140625 28.164203643798828 -39.43729782104492 -82.91939544677734 5.896559238433838 -54.59320068359375 11.40109920501709 -2.205065685600971e-09 -1.53175510470005e-11 -5.468963615307132e-10 -3.770458167906554e-09 -3.256887814995224e-11 -1.035340480015634e-09 -2.2050912207305373e-09 -1.53175510470005e-11 -5.468772656946896e-10 -7.7309088706970215 5.474880218505859 -0.41731396317481995 -2.205065685600971e-09 -1.53175510470005e-11 -5.468899777483216e-10 -2.9055399894714355 0.9651829600334167 -0.10290198773145676 -2.2050912207305373e-09 -1.53175510470005e-11 -5.468836494770812e-10 -10.27859878540039 0.73180091381073 -0.025912299752235413 -2.205065685600971e-09 -1.53175510470005e-11 -5.468899777483216e-10 -2.2216696739196777 -0.7334870100021362 0.2089199721813202 -0.0 0.0 -0.0 -31.77519989013672 -36.120704650878906 -43.705596923828125 -2.619840145111084 74.0625 3.563859462738037 -8.330101013183594 -8.857400894165039 -23.512697219848633 -0.0 0.0 -0.0 4.622969150543213 -15.785799026489258 15.51830005645752 0.36233001947402954 48.12289810180664 -1.5446598529815674 13.046399116516113 -14.862300872802734 33.438697814941406
-0.47079942664586466 42.52951158416172 0.310543118366572 9.588010787963867 -78.86009979248047 -0.9199891686439514 -11.680997848510742 4.8145904541015625 11.079399108886719 1.212109923362732 -8.835209846496582 2.9618399143218994 -8.458199501037598 15.969698905944824 -10.51259994506836 12.78219985961914 -30.636098861694336 -17.535499572753906 -0.0 0.0 -0.0 -0.0 0.0 -0.0 -5.0888872109300376e-14 -1.0177774421860075e-13 6.361109013662547e-14 19.97949981689453 4.981829643249512 51.92729568481445 -28.16259765625 -31.65960121154785 69.86389923095703 -1.7508693933486938 -34.76289749145508 -5.596229553222656 -5.707186945258513e-10 -1.3307440219212374e-11 -1.8203585860909755e-10 -9.79330949668622e-10 -4.9642095989455015e-11 -3.304277962357105e-10 -5.707186945258513e-10 -1.3307440219212374e-11 -1.8206129659414927e-10 7.7309088706970215 5.474880218505859 0.41731396317481995 -5.707186945258513e-10 -1.3307440219212374e-11 -1.820485845405173e-10 2.9055399894714355 0.9651829600334167 0.10290198773145676 -5.707186945258513e-10 -1.3281995295266746e-11 -1.820485845405173e-10 10.27859878540039 0.73180091381073 0.025912299752235413 -5.707186945258513e-10 -1.3307440219212374e-11 -1.820485845405173e-10 2.2216696739196777 -0.7334870100021362 -0.2089199721813202 -5.0888872109300376e-14 -1.0177774421860075e-13 6.361109013662547e-14 -112.38298797607422 55.84459686279297 51.730594635009766 28.167194366455078 -39.416805267333984 -82.88319396972656 5.324248790740967 -52.856197357177734 10.690898895263672 -5.026802862850843e-10 1.2620440283106493e-11 -3.096078948772174e-10 -8.51879733421157e-10 2.6436769440252306e-11 -5.519280033006169e-10 -5.026548066666692e-10 1.2620440283106493e-11 -3.0958244301437787e-10 -7.7309088706970215 5.474880218505859 -0.41731396317481995 -5.026548066666692e-10 1.2620440283106493e-11 -3.096078948772174e-10 -2.9055399894714355 0.9651829600334167 -0.10290198773145676 -5.026802862850843e-10 1.2620440283106493e-11 -3.096078948772174e-10 -10.27859878540039 0.73180091381073 -0.025912299752235413 -5.026548066666692e-10 1.2620440283106493e-11 -3.096142509040334e-10 -2.2216696739196777 -0.7334870100021362 0.2089199721813202 -0.0 0.0 -0.0 -30.756595611572266 -35.26129913330078 -43.92609786987305 -2.3287594318389893 72.79399871826172 3.3432095050811768 -9.529619216918945 -9.579249382019043 -25.939298629760742 -0.0 0.0 -0.0 4.237399578094482 -15.678901672363281 15.612001419067383 0.3541231155395508 47.795997619628906 -1.5308998823165894 13.469498634338379 -15.182002067565918 33.91100311279297
